<svg width="16" height="16" viewBox="0 0 16 16" fill="none" xmlns="http://www.w3.org/2000/svg">
<path d="M14.4201 10.9672H5.11543L5.58262 10.0156L13.3451 10.0016C13.6076 10.0016 13.8326 9.81406 13.8795 9.55469L14.9545 3.5375C14.9826 3.37969 14.9404 3.21719 14.8373 3.09375C14.7863 3.033 14.7228 2.98407 14.651 2.95034C14.5792 2.91661 14.501 2.8989 14.4217 2.89844L4.54668 2.86562L4.4623 2.46875C4.40918 2.21562 4.18105 2.03125 3.92168 2.03125H1.50762C1.36133 2.03125 1.22104 2.08936 1.1176 2.1928C1.01417 2.29624 0.956055 2.43653 0.956055 2.58281C0.956055 2.7291 1.01417 2.86939 1.1176 2.97283C1.22104 3.07626 1.36133 3.13438 1.50762 3.13438H3.4748L3.84355 4.8875L4.75137 9.28281L3.58262 11.1906C3.52192 11.2725 3.48536 11.3698 3.47708 11.4714C3.4688 11.573 3.48912 11.675 3.53574 11.7656C3.62949 11.9516 3.81855 12.0688 4.02793 12.0688H5.00918C4.79999 12.3466 4.687 12.685 4.6873 13.0328C4.6873 13.9172 5.40605 14.6359 6.29043 14.6359C7.1748 14.6359 7.89355 13.9172 7.89355 13.0328C7.89355 12.6844 7.77793 12.3453 7.57168 12.0688H10.0889C9.87968 12.3466 9.76669 12.685 9.76699 13.0328C9.76699 13.9172 10.4857 14.6359 11.3701 14.6359C12.2545 14.6359 12.9732 13.9172 12.9732 13.0328C12.9732 12.6844 12.8576 12.3453 12.6514 12.0688H14.4217C14.7248 12.0688 14.9732 11.8219 14.9732 11.5172C14.9723 11.3711 14.9137 11.2312 14.81 11.1282C14.7064 11.0251 14.5663 10.9673 14.4201 10.9672V10.9672ZM4.77637 3.95312L13.7732 3.98281L12.892 8.91719L5.8248 8.92969L4.77637 3.95312ZM6.29043 13.5266C6.01855 13.5266 5.79668 13.3047 5.79668 13.0328C5.79668 12.7609 6.01855 12.5391 6.29043 12.5391C6.5623 12.5391 6.78418 12.7609 6.78418 13.0328C6.78418 13.1638 6.73216 13.2894 6.63956 13.3819C6.54697 13.4745 6.42138 13.5266 6.29043 13.5266V13.5266ZM11.3701 13.5266C11.0982 13.5266 10.8764 13.3047 10.8764 13.0328C10.8764 12.7609 11.0982 12.5391 11.3701 12.5391C11.642 12.5391 11.8639 12.7609 11.8639 13.0328C11.8639 13.1638 11.8118 13.2894 11.7193 13.3819C11.6267 13.4745 11.5011 13.5266 11.3701 13.5266V13.5266Z" fill="#8C8C8C"/>
</svg>
